<svg t="1700799907019" class="icon" viewBox="0 0 1024 1024" version="1.1" xmlns="http://www.w3.org/2000/svg" p-id="6746"
	width="200" height="200">
	<path
		d="M482.167467 0H34.133333v448.034133h448.034134V0zM392.192 371.575467H125.064533V83.694933h267.195734v287.880534zM989.866667 0H541.832533v448.034133H989.866667V0z m-89.088 371.575467h-275.797334V83.694933h275.797334v287.880534zM482.0992 507.767467H34.133333V955.733333h448.034134V507.6992z m-89.838933 360.8576H125.064533V588.526933h267.195734v280.098134z m223.368533-67.925334V657.544533h-73.728v143.1552h73.728zM714.752 508.586667l-143.018667-0.750934 0.068267 69.973334 142.9504 0.8192V508.586667z m249.856 376.832l-147.797333 0.8192v70.382933L964.676267 955.733333v-70.4512z m0-307.6096V507.767467l-142.677333 0.8192 0.136533 69.973333 142.609067-0.8192z m-255.044267 308.4288l-137.8304-0.887467v70.314667l137.762134 0.887466 0.068266-70.314666z m204.8-223.505067v143.1552H989.866667V662.664533h-75.5712z"
		fill="#43475C" p-id="6747"></path>
</svg>